<?xml version="1.0" standalone="no"?>
<!DOCTYPE svg PUBLIC "-//W3C//DTD SVG 20010904//EN"
 "http://www.w3.org/TR/2001/REC-SVG-20010904/DTD/svg10.dtd">
<svg version="1.0" xmlns="http://www.w3.org/2000/svg"
 width="260.000000pt" height="260.000000pt" viewBox="0 0 260.000000 260.000000"
 preserveAspectRatio="xMidYMid meet">
<metadata>
Created by potrace 1.11, written by Peter Selinger 2001-2013
</metadata>
<g transform="translate(0.000000,260.000000) scale(0.100000,-0.100000)"
fill="#000000" stroke="none">
<path d="M530 1300 l0 -1290 775 0 775 0 0 1290 0 1290 -775 0 -775 0 0 -1290z
m442 188 c75 -22 138 -111 138 -193 0 -109 -96 -205 -205 -205 -109 0 -205 96
-205 205 0 51 23 106 60 143 59 58 130 75 212 50z m699 2 c48 -14 117 -84 130
-135 62 -230 -235 -366 -370 -169 -27 38 -37 116 -22 169 13 49 81 121 125
134 43 13 94 13 137 1z"/>
<path d="M830 1365 c-53 -54 -63 -68 -54 -82 18 -28 30 -26 68 14 l36 38 0
-87 c0 -87 0 -88 25 -88 25 0 25 1 25 88 l0 87 36 -38 c38 -40 50 -42 68 -14
9 14 -1 28 -54 82 -35 36 -69 65 -75 65 -6 0 -40 -29 -75 -65z"/>
<path d="M1580 1343 l0 -87 -35 38 c-35 39 -51 42 -69 14 -8 -13 3 -30 54 -82
35 -36 69 -66 75 -66 6 0 40 30 75 66 51 52 62 69 54 82 -18 28 -34 25 -69
-14 l-35 -38 0 87 c0 86 0 87 -25 87 -25 0 -25 -1 -25 -87z"/>
</g>
</svg>
